<?xml version="1.0" encoding="UTF-8"?>
<svg version="1.1" xmlns="http://www.w3.org/2000/svg" width="96" height="96">
<path d="M0 0 C6.99043316 4.95246989 10.99636096 11.65129753 13.02734375 19.953125 C14.81086597 31.43326806 10.86864473 41.75726846 4.1875 50.9296875 C2.05939356 53.71869401 -0.11912739 56.4669085 -2.29736328 59.21679688 C-7.36150299 65.69660775 -11.69270894 72.48704033 -15.5078125 79.765625 C-17.83984375 79.5625 -17.83984375 79.5625 -20.5078125 78.765625 C-21.95703125 76.71875 -21.95703125 76.71875 -23.1953125 74.015625 C-25.51684704 69.40239569 -28.17613813 65.36070586 -31.3828125 61.328125 C-42.00067553 47.87176392 -49.2112222 37.45395157 -47.80957031 19.84716797 C-46.81800872 13.00731835 -43.18040312 6.95953042 -38.1953125 2.265625 C-36.390625 0.9453125 -36.390625 0.9453125 -34.5078125 -0.234375 C-33.88648438 -0.64429688 -33.26515625 -1.05421875 -32.625 -1.4765625 C-22.455808 -7.08315125 -9.72162164 -5.63801363 0 0 Z M-11.5078125 0.765625 C-13.29186636 2.73100892 -14.97232632 4.70048252 -16.6328125 6.765625 C-17.10074219 7.33796875 -17.56867187 7.9103125 -18.05078125 8.5 C-19.20844474 9.91754713 -20.35881836 11.34104186 -21.5078125 12.765625 C-18.35649651 13.10732285 -18.35649651 13.10732285 -16.24609375 10.6484375 C-15.04533203 9.28332031 -15.04533203 9.28332031 -13.8203125 7.890625 C-13.01207031 6.98570313 -12.20382813 6.08078125 -11.37109375 5.1484375 C-9.30248089 3.00718037 -9.30248089 3.00718037 -9.5078125 0.765625 C-10.1678125 0.765625 -10.8278125 0.765625 -11.5078125 0.765625 Z M-37.5078125 7.765625 C-35.0170867 11.59066819 -32.53477471 15.33506783 -29.5078125 18.765625 C-28.8478125 18.765625 -28.1878125 18.765625 -27.5078125 18.765625 C-28.86017827 15.82683016 -30.40723909 13.47329589 -32.5078125 11.015625 C-33.28125 10.09523438 -33.28125 10.09523438 -34.0703125 9.15625 C-35.41404502 7.53386124 -35.41404502 7.53386124 -37.5078125 7.765625 Z M5.4921875 13.765625 C1.8621875 17.725625 -1.7678125 21.685625 -5.5078125 25.765625 C-5.1778125 26.755625 -4.8478125 27.745625 -4.5078125 28.765625 C-0.8778125 24.475625 2.7521875 20.185625 6.4921875 15.765625 C6.1621875 15.105625 5.8321875 14.445625 5.4921875 13.765625 Z M-24.0078125 19.265625 C-26.12934634 22.80151473 -26.2988255 25.74464223 -25.5078125 29.765625 C-24.17447917 32.43229167 -24.17447917 32.43229167 -21.5078125 33.765625 C-17.48682973 34.556638 -14.54370223 34.38715884 -11.0078125 32.265625 C-8.88627866 28.72973527 -8.7167995 25.78660777 -9.5078125 21.765625 C-10.84114583 19.09895833 -10.84114583 19.09895833 -13.5078125 17.765625 C-17.52879527 16.974612 -20.47192277 17.14409116 -24.0078125 19.265625 Z M-30.5078125 22.765625 C-31.13429688 23.53648438 -31.76078125 24.30734375 -32.40625 25.1015625 C-33.22351562 26.10445312 -34.04078125 27.10734375 -34.8828125 28.140625 C-35.69492187 29.13835938 -36.50703125 30.13609375 -37.34375 31.1640625 C-39.5078125 33.765625 -39.5078125 33.765625 -41.5078125 35.765625 C-41.1778125 36.755625 -40.8478125 37.745625 -40.5078125 38.765625 C-38.64087062 36.67166299 -36.78955074 34.56692303 -34.9453125 32.453125 C-34.41228516 31.85822266 -33.87925781 31.26332031 -33.33007812 30.65039062 C-31.97668048 29.08743463 -30.7333261 27.43074754 -29.5078125 25.765625 C-29.8378125 24.775625 -30.1678125 23.785625 -30.5078125 22.765625 Z M-17.49609375 39.7421875 C-19.83895542 42.41186853 -22.17879795 45.08385093 -24.5078125 47.765625 C-25.08144531 48.39082031 -25.65507813 49.01601563 -26.24609375 49.66015625 C-27.78238231 51.31768963 -27.78238231 51.31768963 -29.5078125 53.765625 C-29.1778125 54.755625 -28.8478125 55.745625 -28.5078125 56.765625 C-26.56562899 54.54039459 -24.62902162 52.31070035 -22.6953125 50.078125 C-22.14810547 49.45228516 -21.60089844 48.82644531 -21.03710938 48.18164062 C-18.16761009 44.85997782 -15.6197312 41.64118107 -13.5078125 37.765625 C-15.73867797 37.53062042 -15.73867797 37.53062042 -17.49609375 39.7421875 Z " fill="#91AFFF" transform="translate(65.5078125,10.234375)"/>
<path d="M0 0 C0.66 0 1.32 0 2 0 C5.09484359 9.09110304 4.71149097 15.92834446 0.74609375 24.7578125 C-2.57288482 30.92056913 -6.77976752 36.43267712 -11 42 C-17.45830351 50.45899312 -17.45830351 50.45899312 -22 60 C-22.66 60 -23.32 60 -24 60 C-24.37511719 59.21496094 -24.75023437 58.42992187 -25.13671875 57.62109375 C-25.90435547 56.04521484 -25.90435547 56.04521484 -26.6875 54.4375 C-27.18636719 53.40496094 -27.68523438 52.37242188 -28.19921875 51.30859375 C-30.21097321 47.61237677 -32.49797123 44.38008316 -35 41 C-26.2109375 30.74609375 -26.2109375 30.74609375 -24.60449219 28.87451172 C-23.53399814 27.62386453 -22.46693819 26.3702698 -21.40332031 25.11376953 C-18.71003219 21.93996084 -15.94770291 18.94154904 -13 16 C-11.66588597 14.3926976 -10.35393795 12.76678844 -9.0625 11.125 C-8.37027344 10.25359375 -7.67804687 9.3821875 -6.96484375 8.484375 C-5.78814656 6.99654317 -4.61309747 5.5074023 -3.44140625 4.015625 C-2.33817231 2.64067469 -1.17545428 1.31374301 0 0 Z " fill="#C09DFF" transform="translate(71,26)"/>
<path d="M0 0 C6.99043316 4.95246989 10.99636096 11.65129753 13.02734375 19.953125 C14.81086597 31.43326806 10.86864473 41.75726846 4.1875 50.9296875 C2.05939356 53.71869401 -0.11912739 56.4669085 -2.29736328 59.21679688 C-7.36150299 65.69660775 -11.69270894 72.48704033 -15.5078125 79.765625 C-17.83984375 79.5625 -17.83984375 79.5625 -20.5078125 78.765625 C-21.95703125 76.71875 -21.95703125 76.71875 -23.1953125 74.015625 C-25.51684704 69.40239569 -28.17613813 65.36070586 -31.3828125 61.328125 C-42.00067553 47.87176392 -49.2112222 37.45395157 -47.80957031 19.84716797 C-46.81800872 13.00731835 -43.18040312 6.95953042 -38.1953125 2.265625 C-36.390625 0.9453125 -36.390625 0.9453125 -34.5078125 -0.234375 C-33.88648438 -0.64429688 -33.26515625 -1.05421875 -32.625 -1.4765625 C-22.455808 -7.08315125 -9.72162164 -5.63801363 0 0 Z M-38.5078125 8.765625 C-43.14420687 14.74413353 -45.07100178 20.40406249 -44.87890625 27.9296875 C-43.55613633 38.03843444 -38.29465842 47.28960709 -31.5078125 54.765625 C-30.8478125 54.765625 -30.1878125 54.765625 -29.5078125 54.765625 C-29.41242187 55.32636719 -29.31703125 55.88710937 -29.21875 56.46484375 C-28.3377483 59.31599762 -26.91579641 61.18952841 -25.1328125 63.578125 C-22.27280367 67.54220294 -20.19825985 71.19147336 -18.5078125 75.765625 C-17.8478125 75.765625 -17.1878125 75.765625 -16.5078125 75.765625 C-16.21390625 75.07339844 -15.92 74.38117188 -15.6171875 73.66796875 C-12.60888415 67.10675541 -9.19611092 61.8904321 -4.5703125 56.390625 C2.83733019 47.55197341 9.85057887 37.14809693 9.71484375 25.2421875 C8.88631364 16.02660697 4.56436473 9.17228138 -2.40234375 3.34765625 C-14.25120378 -5.55547605 -29.05888085 -1.47071762 -38.5078125 8.765625 Z " fill="#684BFF" transform="translate(65.5078125,10.234375)"/>
<path d="M0 0 C2 3 2 3 3.375 5.5 C5.08399645 8.1292253 6.2887224 9.45069851 9 11 C12.15118325 11.72045367 12.15118325 11.72045367 15 12 C10.68339698 18.00073223 5.97966692 23.54006063 1 29 C-3.02771628 27.4973862 -4.48215259 25.1647269 -6.6875 21.5625 C-7.28949219 20.59441406 -7.89148438 19.62632813 -8.51171875 18.62890625 C-10 16 -10 16 -11 13 C-9.25705526 10.6318365 -7.51620995 8.49300095 -5.5625 6.3125 C-5.03333984 5.70599609 -4.50417969 5.09949219 -3.95898438 4.47460938 C-2.64838952 2.97509995 -1.32533582 1.48649666 0 0 Z " fill="#BAA0FF" transform="translate(35,36)"/>
<path d="M0 0 C4.10056743 0.52241086 6.1752561 1.63500616 9.1875 4.4375 C9.86167969 5.05496094 10.53585938 5.67242188 11.23046875 6.30859375 C12.50177392 7.52377066 13.75644225 8.75644225 15 10 C14.8162521 14.68956606 12.57181443 17.00160447 9.4375 20.3125 C8.61121094 21.19550781 7.78492187 22.07851563 6.93359375 22.98828125 C6.29550781 23.65214844 5.65742187 24.31601562 5 25 C4.71382812 24.40445313 4.42765625 23.80890625 4.1328125 23.1953125 C2.11128672 19.27773495 0.07981426 15.81803455 -4.10546875 14.171875 C-6.04996032 13.69005408 -8.02487225 13.33476742 -10 13 C-6.73279209 8.61105071 -3.45101522 4.24740335 0 0 Z " fill="#98ADFF" transform="translate(56,11)"/>
<path d="M0 0 C3.54957284 1.18319095 4.45618788 2.41679917 6.75 5.3125 C7.70132813 6.48232422 7.70132813 6.48232422 8.671875 7.67578125 C10 10 10 10 9.97265625 11.9453125 C8.59757826 14.85009572 6.74009207 17.0933426 4.6875 19.5625 C3.51767578 20.98755859 3.51767578 20.98755859 2.32421875 22.44140625 C0.32486806 24.64237214 -1.55215654 26.33636268 -4 28 C-7.07819071 20.68929707 -6.96615922 13.83612755 -4.125 6.5 C-2.94516378 3.73830929 -2.13710039 2.13710039 0 0 Z " fill="#A4A9FF" transform="translate(27,19)"/>
<path d="M0 0 C4.10746873 1.77367968 6.69875485 4.16459142 9 8 C9.62870677 12.95106583 9.55398784 14.96843643 7.1875 19.375 C5.01496917 21.98203699 3.38792862 23.72026245 -0.015625 24.40625 C-4.64796642 24.60061398 -7.37102167 24.20914931 -11 21.1875 C-14.16398362 18.22126536 -14.9248694 16.01426304 -15.25 11.625 C-14.92265957 6.87856369 -13.4949186 4.60565331 -10.3125 1.1875 C-6.91571472 -0.55679514 -3.69657397 -0.53862256 0 0 Z M-9.5 5.5 C-11.62153384 9.03588973 -11.791013 11.97901723 -11 16 C-9.66666667 18.66666667 -9.66666667 18.66666667 -7 20 C-2.97901723 20.791013 -0.03588973 20.62153384 3.5 18.5 C5.62153384 14.96411027 5.791013 12.02098277 5 8 C3.66666667 5.33333333 3.66666667 5.33333333 1 4 C-3.02098277 3.208987 -5.96411027 3.37846616 -9.5 5.5 Z " fill="#5A54FF" transform="translate(51,24)"/>
</svg>
